<?xml version="1.0" standalone="no"?>
<!DOCTYPE svg PUBLIC "-//W3C//DTD SVG 20010904//EN"
 "http://www.w3.org/TR/2001/REC-SVG-20010904/DTD/svg10.dtd">
<svg version="1.0" xmlns="http://www.w3.org/2000/svg"
 width="500.000000pt" height="500.000000pt" viewBox="0 0 500.000000 500.000000"
 preserveAspectRatio="xMidYMid meet">
<metadata>
Created by potrace 1.14, written by Peter Selinger 2001-2017
</metadata>
<g transform="translate(0.000000,500.000000) scale(0.100000,-0.100000)"
fill="#000000" stroke="none">
<path d="M2429 4825 c-2 -2 -38 -4 -79 -6 -41 -1 -79 -6 -85 -10 -5 -3 -28
-10 -50 -14 -22 -3 -53 -15 -70 -25 -16 -10 -57 -28 -89 -39 -32 -11 -66 -27
-75 -35 -9 -7 -25 -16 -36 -20 -11 -3 -35 -19 -53 -36 -18 -16 -44 -33 -56
-36 -13 -3 -36 -19 -52 -35 -15 -16 -35 -29 -43 -29 -9 0 -50 -25 -91 -55 -41
-30 -79 -55 -85 -55 -5 0 -21 -10 -35 -21 -14 -11 -18 -18 -10 -14 10 4 9 1
-2 -8 -10 -8 -18 -19 -18 -24 0 -5 -28 -41 -62 -80 -91 -102 -111 -128 -107
-130 2 -1 -7 -16 -20 -34 -13 -18 -25 -46 -27 -62 l-2 -30 24 29 c13 16 23 24
24 18 0 -6 -3 -14 -7 -18 -10 -9 -33 -78 -33 -98 0 -10 -11 -25 -25 -34 -26
-17 -34 -36 -12 -31 21 4 11 -59 -16 -95 -14 -18 -32 -49 -41 -68 -25 -52 -41
-78 -66 -105 -25 -27 -21 -32 12 -14 11 6 19 7 17 1 -26 -65 -67 -142 -76
-142 -7 0 -13 -5 -13 -11 0 -5 5 -7 10 -4 12 8 13 0 1 -23 -24 -48 -41 -116
-31 -126 5 -5 10 -17 10 -26 0 -17 34 -50 53 -50 18 -1 57 -36 57 -53 0 -8 -7
-31 -15 -50 -9 -21 -11 -37 -5 -39 6 -2 4 -13 -3 -28 -27 -51 -37 -93 -27
-105 5 -6 6 -15 2 -20 -4 -4 0 -6 8 -3 8 2 23 21 32 40 10 20 21 39 26 42 5 3
12 -43 15 -102 3 -59 10 -120 15 -137 4 -16 5 -43 1 -60 -11 -51 -9 -178 4
-215 21 -61 57 -101 114 -126 29 -13 53 -30 53 -38 0 -28 22 -28 50 -1 17 16
26 34 23 44 -4 14 -3 14 10 -1 23 -29 27 -22 24 42 -1 46 1 59 11 55 21 -8 30
36 21 115 -4 41 -9 111 -11 156 l-3 81 20 -31 20 -31 6 145 c4 80 7 146 8 148
0 2 6 0 11 -3 15 -9 40 14 40 36 0 33 22 68 53 80 16 7 37 21 46 31 14 14 39
19 122 24 57 3 133 1 169 -4 36 -5 66 -6 68 -1 6 15 100 -40 125 -73 47 -62
59 -98 59 -172 1 -63 2 -67 11 -38 5 17 16 32 23 32 10 0 14 13 13 43 -2 29
-3 34 -6 15 -6 -37 -23 -36 -23 1 0 23 7 32 35 45 19 9 35 19 35 22 0 3 -19 4
-42 3 -36 -3 -44 0 -57 22 -24 38 -94 105 -118 113 -15 5 -19 12 -16 26 5 18
0 20 -45 20 -28 0 -58 3 -68 7 -11 4 -15 3 -10 -5 5 -8 -12 -10 -61 -6 -134
12 -129 22 10 21 75 -1 137 1 137 6 0 8 -1 8 -103 12 -60 3 -124 14 -197 35
-14 3 -36 3 -50 -1 -14 -4 -35 -7 -48 -8 -21 -1 -23 2 -16 31 3 18 13 42 21
54 17 26 53 123 53 142 0 7 11 28 24 45 14 18 28 46 32 62 4 17 21 62 39 100
17 39 44 99 60 134 36 85 83 145 123 162 17 7 32 18 32 23 0 13 61 56 78 56 7
0 12 4 12 9 0 5 18 8 41 6 59 -4 82 4 76 27 -5 16 0 18 33 16 21 -1 45 4 54
11 8 7 28 15 43 17 15 1 44 5 63 8 19 2 40 5 45 7 22 6 131 -14 145 -26 9 -8
24 -14 35 -15 58 -2 74 -1 113 5 27 5 42 4 42 -3 0 -6 17 -13 38 -17 28 -5 44
-16 65 -46 16 -21 33 -37 38 -34 5 4 9 1 9 -5 0 -6 7 -18 15 -26 8 -9 15 -24
15 -35 0 -12 7 -19 20 -19 11 0 20 -5 20 -12 0 -19 62 -148 71 -148 5 0 9 -11
9 -24 0 -14 5 -37 11 -53 6 -15 13 -51 14 -80 4 -60 22 -123 36 -123 6 0 9 -6
8 -12 -1 -7 3 -26 9 -41 7 -16 10 -33 7 -37 -3 -5 1 -26 10 -46 21 -51 20 -52
-27 -64 -24 -7 -53 -18 -65 -26 -26 -16 -69 -20 -136 -11 -33 5 -59 2 -83 -8
-34 -14 -44 -9 -22 13 9 9 9 12 1 12 -7 0 -18 -8 -25 -18 -7 -10 -21 -23 -32
-29 -13 -7 19 -9 113 -5 85 3 131 1 131 -6 0 -18 -30 -22 -162 -22 -123 0
-132 -1 -152 -23 -11 -12 -30 -29 -42 -37 -30 -22 -104 -119 -105 -138 0 -11
-2 -12 -6 -4 -5 13 -63 17 -63 4 0 -4 13 -13 29 -19 28 -10 29 -12 26 -71 -4
-67 3 -105 16 -96 5 3 9 40 9 82 1 148 55 211 230 267 100 32 369 32 356 0 -3
-8 2 -11 15 -8 10 3 30 2 45 -1 22 -6 24 -9 13 -22 -11 -13 -9 -14 16 -8 24 6
27 4 22 -9 -3 -9 -1 -19 5 -23 7 -4 6 -9 -3 -15 -11 -7 -11 -9 -1 -9 17 0 43
-26 35 -34 -4 -3 -2 -6 3 -7 5 0 17 -2 27 -4 9 -2 17 1 17 7 0 7 4 7 13 1 6
-6 24 -13 40 -17 34 -8 35 -22 2 -30 -25 -6 -33 -20 -16 -31 6 -3 6 -18 1 -36
-5 -18 -5 -38 0 -47 4 -10 18 -54 31 -100 18 -68 21 -98 16 -167 -4 -52 -12
-94 -22 -107 -20 -30 -19 -41 4 -33 29 9 40 -40 40 -170 1 -170 1 -177 16
-191 12 -12 19 -11 50 6 32 18 36 18 42 4 3 -9 1 -25 -6 -36 -14 -23 -9 -33
13 -25 8 3 18 23 21 44 13 80 28 105 70 120 42 14 121 84 131 116 4 14 12 17
28 13 28 -7 40 3 24 21 -8 10 -7 28 7 74 11 36 21 55 26 48 10 -16 18 34 23
134 2 43 6 80 8 82 3 3 19 7 36 9 l30 3 -24 -39 c-31 -49 -25 -59 11 -21 36
39 53 72 58 120 3 22 10 51 17 63 8 15 10 43 6 84 -4 34 -7 90 -6 126 0 80
-16 146 -46 182 -24 30 -31 98 -9 98 29 0 -13 118 -72 202 -45 63 -76 134 -68
159 4 11 3 19 -2 18 -19 -3 -23 2 -13 21 8 16 7 22 -10 32 -11 7 -20 17 -20
21 0 14 -41 60 -101 113 -30 26 -61 64 -70 85 -10 20 -21 38 -25 40 -11 5 -38
44 -84 122 -19 31 -37 57 -41 57 -4 0 -26 38 -49 85 -23 47 -46 85 -51 85 -5
0 -9 7 -9 16 0 9 -16 35 -35 58 -19 24 -35 47 -35 52 0 10 -51 57 -72 68 -20
9 -51 30 -66 43 -7 7 -25 15 -40 19 -15 3 -35 9 -44 15 -10 5 -35 9 -57 9 -23
0 -46 7 -55 16 -15 14 -20 14 -62 -6 -25 -12 -62 -25 -82 -27 -20 -3 -50 -16
-65 -29 -31 -26 -43 -29 -52 -14 -3 6 -17 10 -30 10 -13 0 -26 4 -30 10 -3 5
-20 19 -37 32 -17 12 -28 17 -24 10 4 -7 3 -12 -3 -12 -5 0 -11 5 -13 12 -2 6
-22 17 -44 23 -21 7 -64 24 -95 38 -31 14 -58 24 -60 22z m-710 -319 c-2 -2
-15 -9 -29 -15 -24 -11 -24 -11 -6 3 16 13 49 24 35 12z m-214 -235 c-3 -6
-11 -11 -17 -11 -6 0 -6 6 2 15 14 17 26 13 15 -4z m1886 -1124 c-10 -9 -11
-8 -5 6 3 10 9 15 12 12 3 -3 0 -11 -7 -18z m-1912 -124 c0 -38 5 -84 10 -103
6 -19 11 -39 10 -45 0 -5 -11 23 -24 64 -13 40 -21 80 -18 88 3 8 -3 20 -13
28 -18 13 -18 14 6 24 14 5 26 10 27 10 1 1 2 -29 2 -66z m-89 31 c0 -8 -4
-14 -10 -14 -5 0 -10 9 -10 21 0 11 5 17 10 14 6 -3 10 -13 10 -21z m-85 -511
c13 -16 27 -44 30 -63 4 -19 10 -47 15 -62 13 -42 -4 -34 -45 18 -38 51 -47
78 -16 50 19 -17 19 -17 14 3 -3 11 -11 26 -19 32 -13 11 -20 49 -9 49 3 0 17
-12 30 -27z"/>
<path d="M2822 3105 c-31 -18 -58 -39 -60 -48 -4 -18 18 -23 34 -8 5 5 25 13
45 19 l35 9 18 -48 17 -49 58 0 c64 0 84 13 96 63 6 23 11 26 29 21 22 -7 36
-22 36 -40 0 -17 26 -24 60 -17 25 4 30 10 30 34 0 42 -60 79 -137 85 -192 13
-199 13 -261 -21z m166 -36 c-2 -6 -8 -10 -13 -10 -5 0 -11 4 -13 10 -2 6 4
11 13 11 9 0 15 -5 13 -11z"/>
<path d="M1890 3094 c-59 -11 -129 -37 -134 -50 -7 -17 15 -18 34 -1 8 6 3 -2
-13 -19 -15 -16 -27 -33 -27 -37 0 -14 39 -6 84 18 26 14 51 25 56 25 6 0 17
-16 25 -36 l15 -37 63 7 c69 8 99 30 90 67 -5 19 -3 20 18 14 13 -4 34 -13 46
-21 26 -16 33 -17 33 -5 0 5 -9 13 -21 16 -11 4 -18 12 -16 19 10 25 -37 40
-133 42 -52 1 -106 0 -120 -2z m128 -53 c3 -8 -1 -12 -9 -9 -7 2 -15 10 -17
17 -3 8 1 12 9 9 7 -2 15 -10 17 -17z"/>
<path d="M3417 3045 c-4 -8 -2 -17 3 -20 6 -4 10 3 10 14 0 25 -6 27 -13 6z"/>
<path d="M2282 2913 c-19 -63 -16 -84 8 -48 14 23 17 38 12 59 l-8 29 -12 -40z"/>
<path d="M2670 2914 c0 -8 5 -12 10 -9 6 4 8 11 5 16 -9 14 -15 11 -15 -7z"/>
<path d="M2250 2815 c-11 -13 -10 -14 4 -9 9 3 16 10 16 15 0 13 -6 11 -20 -6z"/>
<path d="M2216 2280 c18 -4 45 -17 62 -29 44 -31 48 -26 9 9 -25 21 -44 30
-68 29 l-34 -1 31 -8z"/>
<path d="M2630 2266 c0 -2 9 -6 20 -9 11 -3 18 -1 14 4 -5 9 -34 13 -34 5z"/>
<path d="M2890 1854 c-14 -7 -49 -14 -79 -14 -30 0 -68 -4 -85 -9 -17 -5 -50
-15 -73 -21 -24 -6 -43 -15 -43 -21 0 -6 9 -7 23 -3 12 4 31 6 42 5 11 -1 26
-3 33 -3 6 -1 12 -5 12 -10 0 -13 32 -2 130 44 73 34 88 38 105 27 18 -11 19
-11 6 4 -16 20 -37 20 -71 1z"/>
<path d="M2030 1850 c0 -3 21 -14 46 -25 25 -10 62 -32 82 -48 23 -18 45 -27
59 -24 13 2 24 -2 27 -9 7 -17 32 -18 43 -1 13 20 51 37 83 37 48 0 35 18 -17
25 -84 11 -103 16 -103 28 0 8 -4 7 -9 -2 -5 -8 -16 -11 -26 -7 -13 5 -14 10
-7 19 9 10 -8 13 -84 12 -51 0 -94 -2 -94 -5z"/>
<path d="M2410 1788 c0 -10 138 -9 145 2 2 4 -29 7 -70 7 -41 0 -75 -4 -75 -9z"/>
<path d="M2580 1790 c-9 -6 -10 -10 -3 -10 6 0 15 5 18 10 8 12 4 12 -15 0z"/>
<path d="M3396 1762 c-3 -9 -12 -114 -20 -232 -18 -241 -29 -328 -56 -415 -10
-33 -24 -86 -31 -118 -9 -41 -23 -71 -49 -100 -20 -23 -51 -64 -69 -90 -73
-107 -198 -220 -383 -347 -28 -19 -59 -43 -69 -52 -22 -21 -131 -67 -217 -93
-59 -17 -65 -17 -98 -2 -19 9 -42 17 -52 17 -19 1 -71 25 -117 54 -56 36 -85
70 -97 111 -15 51 -14 47 -21 65 -10 25 -58 153 -64 175 -4 11 -13 26 -20 33
-7 8 -11 17 -8 22 3 5 -6 29 -20 55 -14 25 -23 50 -20 55 3 6 -1 10 -10 10
-11 0 -15 8 -13 28 2 19 -1 26 -11 24 -9 -2 -12 5 -9 23 3 14 1 25 -3 25 -5 0
-9 8 -9 18 0 10 -4 22 -8 28 -5 5 -13 27 -19 49 -6 22 -17 60 -25 85 -7 25
-13 47 -14 50 0 3 -3 12 -6 20 -14 37 -27 100 -33 155 -4 33 -11 75 -17 94
l-10 33 -47 -44 c-38 -37 -63 -50 -143 -76 -240 -77 -338 -168 -371 -343 -10
-56 -12 -58 -54 -74 -24 -9 -58 -19 -76 -21 -17 -2 -48 -7 -67 -11 -60 -11
-175 -3 -231 16 -68 22 -255 -13 -290 -55 -14 -18 -96 -19 -101 -2 -10 29
-209 -1 -303 -46 -27 -13 -65 -38 -82 -55 l-33 -30 0 -400 0 -401 2500 0 2500
0 0 426 0 427 -97 -9 c-153 -14 -195 -11 -231 15 -18 12 -36 20 -41 16 -5 -3
-26 6 -46 20 -21 13 -41 22 -46 19 -5 -3 -22 5 -38 17 -23 17 -45 22 -105 24
-42 1 -79 5 -83 8 -3 4 -21 7 -40 7 -18 0 -33 4 -33 9 0 6 -21 13 -47 17 -27
3 -52 10 -58 14 -5 4 -39 16 -75 26 -36 9 -82 25 -102 36 -21 10 -43 18 -51
18 -7 0 -26 14 -43 31 -26 28 -29 35 -26 92 4 78 -26 205 -70 296 -47 95 -137
182 -230 225 -95 43 -135 51 -142 28z"/>
<path d="M1840 1470 c0 -5 5 -10 11 -10 5 0 7 5 4 10 -3 6 -8 10 -11 10 -2 0
-4 -4 -4 -10z"/>
<path d="M1873 1423 c-15 -6 -17 -33 -3 -33 5 0 13 -12 16 -27 4 -16 15 -35
24 -43 9 -8 26 -32 39 -52 22 -37 171 -168 191 -168 5 0 10 11 10 25 0 16 -6
25 -15 25 -8 0 -15 5 -15 11 0 6 -7 9 -14 6 -10 -4 -13 -1 -9 9 6 17 -18 58
-64 102 -18 18 -31 37 -28 42 3 4 -2 10 -10 14 -8 3 -15 13 -15 22 0 14 -3 14
-15 4 -13 -10 -19 -8 -35 13 -12 14 -27 24 -34 21 -8 -3 -17 -1 -21 5 -3 6 1
11 9 11 9 0 16 5 16 10 0 11 -7 12 -27 3z"/>
<path d="M3038 1298 c-32 -33 -58 -65 -58 -70 0 -18 25 -2 46 30 12 17 24 28
28 25 3 -4 6 -1 6 5 0 7 8 12 18 12 10 0 22 12 29 30 18 47 -5 37 -69 -32z"/>
<path d="M2956 1174 c-4 -10 -13 -13 -27 -9 -14 5 -19 3 -15 -3 3 -6 0 -12 -6
-15 -7 -2 -10 -7 -6 -11 7 -8 83 28 93 44 3 5 -3 10 -13 10 -11 0 -23 -7 -26
-16z"/>
<path d="M2166 1118 c-10 -15 -15 -32 -11 -38 4 -7 13 -1 21 16 20 38 12 55
-10 22z"/>
<path d="M2875 1120 c-3 -5 -1 -10 4 -10 6 0 11 5 11 10 0 6 -2 10 -4 10 -3 0
-8 -4 -11 -10z"/>
<path d="M2830 1098 c-54 -23 -70 -32 -70 -40 0 -5 8 -4 19 1 10 6 20 8 23 6
2 -2 17 7 33 20 33 27 32 29 -5 13z"/>
<path d="M2180 1080 c0 -11 7 -20 15 -20 8 0 15 6 15 14 0 8 -7 16 -15 20 -10
4 -15 -1 -15 -14z"/>
<path d="M2227 1083 c-14 -13 -6 -31 16 -36 12 -3 32 -9 45 -12 34 -11 27 14
-8 26 -16 6 -30 15 -30 20 0 11 -14 12 -23 2z"/>
<path d="M2323 1037 c5 -18 67 -22 67 -5 0 9 -13 14 -36 15 -22 1 -34 -3 -31
-10z"/>
<path d="M2690 1038 c0 -4 9 -8 20 -8 11 0 20 4 20 8 0 4 -9 8 -20 8 -11 0
-20 -4 -20 -8z"/>
<path d="M2640 1025 c0 -9 6 -12 15 -9 8 4 15 10 15 15 0 5 -7 9 -15 9 -8 0
-15 -7 -15 -15z"/>
</g>
</svg>
